<?xml version="1.0" standalone="no"?><!DOCTYPE svg PUBLIC "-//W3C//DTD SVG 1.1//EN" "http://www.w3.org/Graphics/SVG/1.1/DTD/svg11.dtd"><svg t="1573005185085" class="icon" viewBox="0 0 1024 1024" version="1.1" xmlns="http://www.w3.org/2000/svg" p-id="1108" xmlns:xlink="http://www.w3.org/1999/xlink" width="128" height="128"><defs><style type="text/css"></style></defs><path d="M 810.667 170.667 H 213.333 c -21.3333 0 -42.6667 21.3333 -42.6667 42.6667 v 597.333 c 0 21.3333 21.3333 42.6667 42.6667 42.6667 h 597.333 c 21.3333 0 42.6667 -21.3333 42.6667 -42.6667 V 213.333 c 0 -21.3333 -21.3333 -42.6667 -42.6667 -42.6667 Z m 0 640 H 213.333 V 213.333 h 597.333 v 597.333 Z" p-id="1109"></path><path d="M 768 349.867 l -12.8 -29.8667 c -157.867 98.1333 -268.8 217.6 -320 281.6 l -123.733 -98.1333 l -55.4667 42.6667 l 213.333 221.867 c 38.4 -98.1333 153.6 -285.867 298.667 -418.133 Z" p-id="1110"></path></svg>