<svg t="1577696526435" class="icon" viewBox="0 0 1024 1024" version="1.1" xmlns="http://www.w3.org/2000/svg" p-id="1900" width="48" height="48"><path d="M270.634667 298.666667L512 57.301333 753.365333 298.666667h100.352C900.693333 298.666667 938.666667 336.853333 938.666667 383.744v512.512A85.205333 85.205333 0 0 1 853.76 981.333333H170.24C123.392 981.333333 85.333333 943.146667 85.333333 896.256V383.744C85.333333 336.768 123.648 298.666667 170.24 298.666667h100.394667zM170.666667 896h682.666666V384H170.666667v512zM652.586667 288.426667L512 147.754667 370.517333 288.426667h282.069334zM298.666667 597.333333h85.333333v85.333334H298.666667v-85.333334z m170.666666 0h85.333334v85.333334h-85.333334v-85.333334z m170.666667 0h85.333333v85.333334h-85.333333v-85.333334z" p-id="1901"></path></svg>