<?xml version="1.0" standalone="no"?><!DOCTYPE svg PUBLIC "-//W3C//DTD SVG 1.1//EN" "http://www.w3.org/Graphics/SVG/1.1/DTD/svg11.dtd">
<svg t="1571972423097" class="icon" viewBox="0 0 1024 1024" version="1.1" 
    xmlns="http://www.w3.org/2000/svg" p-id="13733" 
    xmlns:xlink="http://www.w3.org/1999/xlink" width="200" height="200">
    <defs>
        <style type="text/css"></style>
    </defs>
    <path d="M959.4 397.5c0 1.1 0.1 2.4 0.1 3.9 0 26.2-5.5 53.7-16.8 84.1-4.1 11.5-9.2 23.2-15.6 35.9l-0.2 0.3-0.3 0.8-1.6 2.8c-0.4 0.6-0.8 1.4-1.3 2.5l-1.1 2.1c-2.3 4.6-5.3 10.4-9.1 16.5-39.8 69.6-106.8 148.1-199.2 233.3-47.6 43.9-99.7 87.5-154.8 129.4-2 1.6-3.4 2.6-4 3.1l-0.3 0.3c-12.7 9.9-28.3 15.3-43.9 15.3-15.8 0-30.9-5.3-43.7-15.2l-0.1-0.1c-0.5-0.4-1.7-1.3-3.3-2.5-77.6-58.7-137.4-112.2-173.8-146.8-104.1-98.4-172.8-187.3-204.2-264-0.7-1.5-1.1-2.8-1.5-3.7l-0.1-0.3c-13.3-33.3-20-64.9-20-93.9 0-0.8 0-1.8 0.1-2.9-0.4-3.9-0.7-8.1-0.7-13C64 225.8 186.7 96 337.5 96c37 0 73 7.9 107.2 23.6 24.4 11.2 47 25.8 67.2 43.8 20.2-17.9 42.7-32.6 67.1-43.8C613.3 103.9 649.4 96 686.5 96 837.3 96 960 225.8 960 385.4c0 4.9-0.3 9.1-0.6 12.1z" p-id="13734"></path>
</svg>